<?xml version="1.0" standalone="no"?>
<!DOCTYPE svg PUBLIC "-//W3C//DTD SVG 20010904//EN"
 "http://www.w3.org/TR/2001/REC-SVG-20010904/DTD/svg10.dtd">
<svg version="1.0" xmlns="http://www.w3.org/2000/svg"
 width="500.000000pt" height="500.000000pt" viewBox="0 0 500.000000 500.000000"
 preserveAspectRatio="xMidYMid meet">
<metadata>
Created by potrace 1.11, written by Peter Selinger 2001-2013
</metadata>
<g transform="translate(0.000000,500.000000) scale(0.100000,-0.100000)"
fill="#000000" stroke="none">
<path d="M0 2500 l0 -2500 2500 0 2500 0 0 2500 0 2500 -2500 0 -2500 0 0
-2500z m1918 269 c46 -16 77 -84 69 -151 -9 -73 -42 -135 -90 -166 -37 -25
-50 -27 -159 -30 -65 -2 -118 -2 -118 0 0 2 14 69 31 148 16 80 33 160 36 178
l6 32 97 0 c53 0 111 -5 128 -11z m257 -11 c-52 -229 -55 -262 -25 -278 51
-27 85 12 110 128 34 163 38 172 65 172 27 0 28 -5 16 -65 -51 -239 -54 -246
-111 -275 -28 -14 -59 -20 -108 -20 -61 0 -72 3 -96 26 -17 18 -26 37 -26 59
0 27 25 165 45 253 5 20 11 22 70 22 63 0 65 -1 60 -22z m395 -93 c13 -64 27
-110 31 -103 4 7 14 51 24 98 24 123 22 120 56 120 25 0 29 -3 24 -22 -26
-114 -65 -306 -65 -320 0 -16 -9 -18 -73 -18 l-73 0 -28 115 c-15 63 -29 115
-31 115 -1 0 -13 -52 -26 -115 -23 -115 -24 -115 -52 -115 -34 0 -35 -13 15
218 l31 142 71 0 71 0 25 -115z m413 104 c70 -32 82 -180 22 -271 -40 -60 -88
-78 -217 -78 -87 0 -108 3 -108 14 0 8 9 54 20 103 10 48 26 123 36 166 l16
77 104 0 c56 0 114 -5 127 -11z m332 -11 c4 -19 35 -311 35 -331 0 -4 -29 -7
-64 -7 -68 0 -75 6 -76 68 0 20 -5 22 -50 22 -50 0 -51 -1 -72 -45 -17 -34
-28 -45 -45 -45 -13 0 -23 4 -23 10 0 5 26 65 58 132 32 68 67 144 78 170 l19
48 67 0 c62 0 68 -2 73 -22z m-1664 -509 c96 -68 40 -294 -82 -329 -89 -26
-186 -3 -213 49 -39 75 -5 218 64 269 60 45 176 50 231 11z m385 0 c78 -73 44
-267 -56 -320 -40 -22 -138 -26 -188 -8 -46 16 -72 64 -72 135 0 110 58 190
154 215 54 14 136 3 162 -22z m-676 1 c0 -18 -7 -20 -59 -20 -65 0 -64 1 -77
-72 l-6 -38 47 0 c39 0 46 -3 43 -17 -2 -14 -15 -19 -54 -21 l-50 -3 -14 -82
-15 -82 -62 -3 c-35 -2 -63 0 -63 3 0 3 16 78 35 165 19 87 35 166 35 174 0
14 18 16 120 16 113 0 120 -1 120 -20z m1050 1 c0 -17 -8 -20 -47 -23 l-48 -3
-21 -100 c-12 -55 -27 -126 -34 -157 l-11 -58 -65 0 c-35 0 -64 2 -64 5 0 2
14 68 30 145 17 77 30 147 30 155 0 11 -12 15 -40 15 -43 0 -43 0 -34 24 5 14
28 16 155 16 141 0 149 -1 149 -19z m279 -5 c30 -27 29 -87 -3 -117 -24 -23
-24 -23 -5 -47 23 -29 25 -89 4 -118 -29 -42 -75 -54 -200 -54 l-118 0 6 33
c6 35 28 140 53 255 l16 74 113 -4 c94 -2 116 -6 134 -22z m295 2 c3 -13 10
-72 16 -133 5 -60 13 -131 16 -157 l6 -48 -65 0 -66 0 -7 45 -6 45 -50 0 c-49
0 -49 0 -69 -45 -16 -36 -25 -45 -44 -45 -14 0 -25 4 -25 9 0 12 33 86 96 218
30 62 54 117 54 122 0 7 28 11 70 11 64 0 70 -2 74 -22z m252 5 c-3 -10 -16
-72 -31 -138 -14 -66 -27 -128 -29 -137 -4 -15 4 -18 50 -18 51 0 54 -1 54
-25 l0 -25 -120 0 c-66 0 -120 3 -120 6 0 6 20 99 62 289 6 28 13 53 15 58 2
4 31 7 64 7 53 0 60 -2 55 -17z m268 0 c-2 -10 -15 -72 -29 -138 -14 -66 -28
-128 -31 -137 -5 -16 2 -18 50 -18 53 0 56 -1 56 -25 l0 -25 -121 0 c-121 0
-121 0 -116 23 3 12 20 93 38 180 l33 157 62 0 c54 0 62 -2 58 -17z m246 6 c0
-6 -9 -13 -20 -16 -13 -4 -23 -19 -30 -47 -17 -65 -18 -66 -46 -66 -28 0 -28
-3 -11 105 1 6 -4 9 -10 8 -7 -2 -13 4 -13 12 0 12 14 15 65 15 40 0 65 -4 65
-11z m90 -26 l1 -38 20 38 c18 33 23 37 60 37 34 0 40 -3 35 -17 -2 -10 -7
-34 -11 -53 -12 -67 -15 -71 -43 -68 -23 3 -27 7 -24 33 l3 30 -20 -32 c-15
-23 -28 -33 -46 -33 -21 0 -25 5 -25 30 0 17 -4 30 -10 30 -5 0 -10 -11 -10
-25 0 -14 -7 -28 -15 -32 -23 -8 -25 -2 -14 47 20 96 16 90 59 90 39 0 40 -1
40 -37z m-15 -683 c0 -14 6 -30 14 -36 19 -15 9 -48 -16 -52 -12 -2 -25 -12
-28 -23 -8 -25 -42 -25 -50 1 -4 12 -15 20 -30 20 -29 0 -40 28 -20 50 8 9 15
26 15 37 0 29 6 32 63 30 48 -2 52 -4 52 -27z m-2632 3 c-25 -3 -33 -9 -33
-24 0 -14 7 -19 28 -20 l27 -2 -27 -4 c-42 -6 -38 -40 5 -46 28 -3 26 -4 -11
-5 l-42 -2 1 48 c1 26 4 50 6 55 2 4 21 6 41 5 l37 -1 -32 -4z m128 -48 l13
-40 15 48 c8 26 19 47 23 47 10 0 4 -24 -18 -77 -7 -18 -17 -33 -23 -33 -9 0
-41 81 -41 104 0 19 17 -9 31 -49z m172 48 c-25 -3 -33 -9 -33 -24 0 -14 8
-19 33 -21 l32 -1 -32 -4 c-24 -3 -33 -9 -33 -23 0 -14 9 -20 33 -23 29 -3 28
-4 -9 -5 l-42 -2 3 53 c1 28 3 53 4 55 0 1 18 1 39 0 36 -1 36 -1 5 -5z m174
-53 c1 -54 1 -54 -13 -27 -19 35 -44 36 -44 1 0 -14 -4 -23 -10 -19 -5 3 -10
29 -10 56 l0 50 38 -3 37 -3 2 -55z m97 38 c9 -13 19 -18 22 -13 13 27 24 39
30 32 5 -4 0 -21 -9 -36 -9 -16 -17 -39 -17 -50 0 -12 -4 -21 -10 -21 -5 0
-10 10 -10 23 0 12 -9 37 -20 55 -22 36 -11 44 14 10z m211 12 c-3 -5 -13 -10
-21 -10 -10 0 -14 -12 -14 -45 0 -25 -4 -45 -10 -45 -5 0 -10 20 -10 45 0 33
-4 45 -14 45 -8 0 -18 5 -21 10 -4 6 13 10 45 10 32 0 49 -4 45 -10z m85 -15
c0 -21 5 -25 30 -25 25 0 30 4 30 25 0 14 5 25 10 25 6 0 10 -25 10 -55 0 -30
-4 -55 -10 -55 -5 0 -10 8 -10 19 0 12 -9 20 -25 23 -29 6 -35 2 -35 -24 0
-10 -4 -18 -10 -18 -5 0 -10 25 -10 55 0 30 5 55 10 55 6 0 10 -11 10 -25z
m170 -30 c0 -30 -4 -55 -10 -55 -5 0 -10 25 -10 55 0 30 5 55 10 55 6 0 10
-25 10 -55z m130 23 l20 -33 0 33 c0 17 5 32 10 32 10 0 12 -9 14 -72 2 -48
-25 -48 -49 -1 l-20 38 -3 -37 c-5 -58 -22 -45 -22 17 0 65 19 74 50 23z m198
20 c21 -21 13 -32 -8 -13 -20 18 -21 18 -41 -2 -35 -35 1 -92 38 -61 13 10 12
13 -4 19 -16 7 -15 8 5 8 17 1 22 -5 22 -22 0 -19 -6 -23 -34 -25 -39 -3 -58
16 -58 55 0 42 52 69 80 41z m250 -8 c5 -13 3 -13 -11 -2 -9 8 -21 11 -27 7
-17 -11 -11 -24 14 -31 29 -7 41 -31 25 -50 -14 -17 -55 -19 -64 -3 -11 17 3
23 20 9 11 -9 19 -10 27 -2 12 12 2 32 -16 32 -8 0 -19 7 -26 15 -10 12 -10
18 0 30 16 19 52 16 58 -5z m166 4 c33 -33 12 -94 -32 -94 -36 0 -52 17 -52
55 0 17 5 36 12 43 17 17 54 15 72 -4z m160 10 c9 -3 16 -13 16 -22 0 -13 -2
-13 -19 2 -21 19 -47 13 -53 -12 -11 -46 22 -74 53 -46 17 16 19 16 19 1 0
-20 -47 -34 -69 -20 -20 12 -27 69 -10 89 12 15 37 18 63 8z m160 0 c9 -3 16
-13 16 -22 0 -13 -2 -13 -19 2 -21 19 -47 13 -53 -12 -11 -46 22 -74 53 -46
17 16 19 16 19 1 0 -20 -47 -34 -69 -20 -20 12 -27 69 -10 89 12 15 37 18 63
8z m139 -1 c-25 -3 -33 -9 -33 -24 0 -14 7 -19 28 -20 l27 -2 -27 -4 c-42 -6
-38 -40 5 -46 28 -3 26 -4 -11 -5 l-42 -2 1 48 c1 26 4 50 6 55 2 4 21 6 41 5
l37 -1 -32 -4z m173 -53 c1 -49 0 -52 -9 -27 -14 35 -47 37 -47 2 0 -14 -4
-25 -9 -25 -7 0 -9 90 -2 108 0 2 16 2 34 0 32 -3 32 -4 33 -58z"/>
<path d="M1805 2718 c-24 -105 -53 -253 -50 -256 2 -3 15 -2 28 2 17 4 31 20
46 55 23 54 42 168 34 201 -8 29 -51 27 -58 -2z"/>
<path d="M2871 2717 c-5 -13 -19 -68 -30 -123 -12 -54 -24 -107 -27 -116 -8
-27 28 -23 54 5 26 27 39 66 52 156 10 68 1 101 -26 101 -8 0 -18 -10 -23 -23z"/>
<path d="M3162 2627 c-18 -38 -32 -71 -32 -73 0 -7 69 -4 72 4 2 4 1 36 -2 72
l-6 65 -32 -68z"/>
<path d="M1510 2198 c-24 -41 -43 -119 -44 -185 -1 -58 4 -67 32 -59 35 11 72
124 72 219 0 50 -2 57 -20 57 -12 0 -28 -13 -40 -32z"/>
<path d="M1914 2222 c-56 -36 -97 -280 -46 -270 42 8 87 135 80 227 -3 44 -13
57 -34 43z"/>
<path d="M2551 2186 c-15 -61 -14 -66 10 -66 24 0 51 56 42 88 -10 39 -40 26
-52 -22z"/>
<path d="M2526 2068 c-6 -20 -26 -106 -26 -112 0 -14 38 -4 53 12 23 26 32 78
17 97 -15 18 -39 20 -44 3z"/>
<path d="M2829 2113 c-13 -32 -25 -61 -27 -65 -2 -4 15 -8 38 -8 34 0 41 3 36
16 -3 9 -6 38 -6 65 0 27 -4 49 -8 49 -5 0 -19 -26 -33 -57z"/>
<path d="M3750 1537 c-24 -19 -13 -57 16 -57 32 0 49 39 25 57 -20 15 -22 15
-41 0z"/>
<path d="M1610 1530 c0 -13 7 -20 19 -20 25 0 38 20 20 31 -23 15 -39 10 -39
-11z"/>
<path d="M2911 1528 c-15 -42 8 -75 44 -62 15 6 20 40 9 68 -9 24 -43 19 -53
-6z"/>
<path d="M3550 1530 c0 -16 5 -21 23 -18 12 2 22 10 22 18 0 8 -10 16 -22 18
-18 3 -23 -2 -23 -18z"/>
</g>
</svg>
